<svg width="13" height="12" viewBox="0 0 13 12" fill="none" xmlns="http://www.w3.org/2000/svg">
    <path
        d="M6.66276 0.4676C6.61914 0.425875 6.5611 0.402588 6.50074 0.402588C6.44038 0.402588 6.38235 0.425875 6.33873 0.4676L0.945179 5.62004C0.922273 5.64195 0.90405 5.66828 0.891612 5.69744C0.879174 5.72659 0.87278 5.75797 0.872816 5.78967L0.871937 10.6254C0.871937 10.874 0.970709 11.1125 1.14652 11.2883C1.32234 11.4641 1.5608 11.5629 1.80944 11.5629H4.62487C4.74919 11.5629 4.86841 11.5135 4.95632 11.4256C5.04423 11.3377 5.09362 11.2185 5.09362 11.0942V7.10978C5.09362 7.04762 5.11831 6.98801 5.16226 6.94406C5.20622 6.9001 5.26583 6.87541 5.32799 6.87541H7.67174C7.7339 6.87541 7.79351 6.9001 7.83747 6.94406C7.88142 6.98801 7.90611 7.04762 7.90611 7.10978V11.0942C7.90611 11.2185 7.9555 11.3377 8.04341 11.4256C8.13131 11.5135 8.25054 11.5629 8.37486 11.5629H11.1891C11.4378 11.5629 11.6762 11.4641 11.852 11.2883C12.0278 11.1125 12.1266 10.874 12.1266 10.6254V5.78967C12.1267 5.75797 12.1203 5.72659 12.1078 5.69744C12.0954 5.66828 12.0772 5.64195 12.0543 5.62004L6.66276 0.4676Z"
        fill="white" />
</svg>